<?xml version="1.0" encoding="utf-8"?>
<!-- Generator: Adobe Illustrator 24.2.0, SVG Export Plug-In . SVG Version: 6.00 Build 0)  -->
<svg version="1.1" id="图层_1" xmlns="http://www.w3.org/2000/svg" xmlns:xlink="http://www.w3.org/1999/xlink" x="0px" y="0px"
	 viewBox="0 0 35 35" style="enable-background:new 0 0 35 35;" xml:space="preserve">
<style type="text/css">
	.st0{fill:#F4F9FD;}
	.st1{fill:#4497D4;}
</style>
<path class="st0" d="M5,0h25c2.8,0,5,2.3,5,5v25c0,2.8-2.3,5-5,5H5c-2.8,0-5-2.3-5-5V5C0,2.3,2.3,0,5,0z"/>
<g>
	<path class="st1" d="M20.2,17.5c0,1.5-1.2,2.7-2.7,2.7c-3,0-5.4,2.4-5.4,5.4h2.7c0-1.5,1.2-2.7,2.7-2.7c3,0,5.4-2.4,5.4-5.4
		c0-1.5,1.2-2.7,2.7-2.7v-2.7C22.6,12.1,20.2,14.5,20.2,17.5z"/>
	<path class="st1" d="M20.2,25.6h2.7c0-1.5,1.2-2.7,2.7-2.7v-2.7C22.6,20.2,20.2,22.6,20.2,25.6z"/>
	<path class="st1" d="M14.8,17.5c0-1.5,1.2-2.7,2.7-2.7c3,0,5.4-2.4,5.4-5.4h-2.7c0,1.5-1.2,2.7-2.7,2.7c-3,0-5.4,2.4-5.4,5.4
		c0,1.5-1.2,2.7-2.7,2.7v2.7C12.4,22.9,14.8,20.5,14.8,17.5z"/>
	<path class="st1" d="M14.8,9.4h-2.7c0,1.5-1.2,2.7-2.7,2.7v2.7C12.4,14.8,14.8,12.4,14.8,9.4z"/>
</g>
</svg>
