<?xml version="1.0" encoding="utf-8"?>
<!-- Generator: Adobe Illustrator 24.2.0, SVG Export Plug-In . SVG Version: 6.00 Build 0)  -->
<svg version="1.1" id="图层_1" xmlns="http://www.w3.org/2000/svg" xmlns:xlink="http://www.w3.org/1999/xlink" x="0px" y="0px"
	 viewBox="0 0 30 30" style="enable-background:new 0 0 30 30;" xml:space="preserve">
<style type="text/css">
	.st0{fill:#FFFFFF;}
</style>
<path class="st0" d="M10.7,28c4.8,0,8.7-3.9,8.7-8.7c0,2.4-1.9,4.3-4.3,4.3s-4.3-1.9-4.3-4.3c0,0,0,0,0,0H2C2,24.1,5.9,28,10.7,28
	L10.7,28z"/>
<path class="st0" d="M2,10.7c0,4.8,3.9,8.7,8.7,8.7c-2.4,0-4.3-1.9-4.3-4.3s1.9-4.3,4.3-4.3c0,0,0,0,0,0V2C5.9,2,2,5.9,2,10.7
	C2,10.7,2,10.7,2,10.7z"/>
<path class="st0" d="M19.3,2c-4.8,0-8.7,3.9-8.7,8.7c0-2.4,1.9-4.3,4.3-4.3s4.3,1.9,4.3,4.3c0,0,0,0,0,0H28C28,5.9,24.1,2,19.3,2
	C19.3,2,19.3,2,19.3,2z"/>
<path class="st0" d="M28,19.3c0-4.8-3.9-8.7-8.7-8.7c2.4,0,4.3,1.9,4.3,4.3s-1.9,4.3-4.3,4.3c0,0,0,0,0,0V28
	C24.1,28,28,24.1,28,19.3L28,19.3z"/>
</svg>
