<?xml version="1.0" encoding="utf-8"?>
<!-- Generator: Adobe Illustrator 24.2.0, SVG Export Plug-In . SVG Version: 6.00 Build 0)  -->
<svg version="1.1" id="图层_1" xmlns="http://www.w3.org/2000/svg" xmlns:xlink="http://www.w3.org/1999/xlink" x="0px" y="0px"
	 viewBox="0 0 30 30" style="enable-background:new 0 0 30 30;" xml:space="preserve">
<style type="text/css">
	.st0{fill:#FFFFFF;}
</style>
<polygon class="st0" points="22,8 15,8 15,1 "/>
<path class="st0" d="M29,8h-7v7C25.9,15,29,11.9,29,8z"/>
<polygon class="st0" points="15,29 15,22 22,22 "/>
<polygon class="st0" points="8,8 15,8 15,1 "/>
<polygon class="st0" points="15,29 15,22 8,22 "/>
<polygon class="st0" points="22,1 29,1 29,8 "/>
<polygon class="st0" points="1,22 8,22 8,29 "/>
<polygon class="st0" points="8,29 1,29 1,22 "/>
<polygon class="st0" points="15,29 8,29 8,22 "/>
<polygon class="st0" points="15,1 22,1 22,8 "/>
<polygon class="st0" points="29,8 22,8 22,1 "/>
<path class="st0" d="M15,22h7v-7C18.1,15,15,18.1,15,22z"/>
<path class="st0" d="M8,15V8h7C15,11.9,11.9,15,8,15z"/>
<path class="st0" d="M8,15v7H1C1,18.1,4.1,15,8,15z"/>
</svg>
