<?xml version="1.0" encoding="utf-8"?>
<!-- Generator: Adobe Illustrator 24.2.0, SVG Export Plug-In . SVG Version: 6.00 Build 0)  -->
<svg version="1.1" id="图层_1" xmlns="http://www.w3.org/2000/svg" xmlns:xlink="http://www.w3.org/1999/xlink" x="0px" y="0px"
	 viewBox="0 0 30 30" style="enable-background:new 0 0 30 30;" xml:space="preserve">
<style type="text/css">
	.st0{fill:#FFFFFF;}
</style>
<path class="st0" d="M9,9c0-1.7-1.3-3-3-3H0c1.7,0,3,1.3,3,3"/>
<rect x="3" y="9" class="st0" width="6" height="6"/>
<path class="st0" d="M12,18c0-1.7-1.3-3-3-3H3c1.7,0,3,1.3,3,3"/>
<rect x="6" y="18" class="st0" width="6" height="6"/>
<path class="st0" d="M18,9c0-1.7-1.3-3-3-3H9c1.7,0,3,1.3,3,3"/>
<rect x="12" y="9" class="st0" width="6" height="6"/>
<path class="st0" d="M21,18c0-1.7-1.3-3-3-3h-6c1.7,0,3,1.3,3,3"/>
<rect x="15" y="18" class="st0" width="6" height="6"/>
<path class="st0" d="M27,9c0-1.7-1.3-3-3-3h-6c1.7,0,3,1.3,3,3"/>
<rect x="21" y="9" class="st0" width="6" height="6"/>
<path class="st0" d="M30,18c0-1.7-1.3-3-3-3h-6c1.7,0,3,1.3,3,3"/>
<rect x="24" y="18" class="st0" width="6" height="6"/>
</svg>
