<?xml version="1.0" encoding="utf-8"?>
<!-- Generator: Adobe Illustrator 24.2.0, SVG Export Plug-In . SVG Version: 6.00 Build 0)  -->
<svg version="1.1" id="图层_1" xmlns="http://www.w3.org/2000/svg" xmlns:xlink="http://www.w3.org/1999/xlink" x="0px" y="0px"
	 viewBox="0 0 30 30" style="enable-background:new 0 0 30 30;" xml:space="preserve">
<style type="text/css">
	.st0{fill:#FFFFFF;}
</style>
<polygon class="st0" points="19.7,1.5 19.7,6.9 15,9.6 15,4.2 "/>
<polygon class="st0" points="15,4.2 15,9.6 10.3,12.3 10.3,6.9 "/>
<polygon class="st0" points="10.3,12.3 5.7,9.6 5.7,4.2 10.3,6.9 "/>
<polygon class="st0" points="15,20.4 10.3,17.7 10.3,12.3 15,15 "/>
<polygon class="st0" points="1,17.7 5.7,15 10.3,17.7 5.7,20.4 "/>
<polygon class="st0" points="5.7,20.4 10.3,17.7 15,20.4 10.3,23.1 "/>
<polygon class="st0" points="15,20.4 15,25.8 10.3,28.5 10.3,23.1 "/>
<polygon class="st0" points="24.3,25.8 19.7,23.1 19.7,17.7 24.3,20.4 "/>
<polygon class="st0" points="24.3,20.4 19.7,17.7 19.7,12.3 24.3,15 "/>
<polygon class="st0" points="19.7,12.3 24.3,9.6 29,12.3 24.3,15 "/>
<polygon class="st0" points="10.3,12.3 15,9.6 19.7,12.3 15,15 "/>
<polygon class="st0" points="19.7,12.3 19.7,17.7 15,20.4 15,15 "/>
</svg>
