<?xml version="1.0" encoding="utf-8"?>
<!-- Generator: Adobe Illustrator 24.2.0, SVG Export Plug-In . SVG Version: 6.00 Build 0)  -->
<svg version="1.1" id="图层_1" xmlns="http://www.w3.org/2000/svg" xmlns:xlink="http://www.w3.org/1999/xlink" x="0px" y="0px"
	 viewBox="0 0 30 30" style="enable-background:new 0 0 30 30;" xml:space="preserve">
<style type="text/css">
	.st0{fill:#FFFFFF;}
</style>
<path class="st0" d="M6.7,12.4V10c1.5,0,2.8,1.3,2.8,2.8l0,0H7.2C7.2,12.6,7,12.4,6.7,12.4z"/>
<path class="st0" d="M6.7,6.8v2.3c1.5,0,2.8-1.3,2.8-2.8H7.2C7.2,6.6,7,6.8,6.7,6.8z"/>
<path class="st0" d="M3.9,9.6H1.6c0,1.5,1.3,2.8,2.8,2.8l0,0V10C4.1,10,3.9,9.8,3.9,9.6z"/>
<path class="st0" d="M3.9,9.6H1.6c0-1.5,1.3-2.8,2.8-2.8v2.3C4.1,9.1,3.9,9.3,3.9,9.6z"/>
<rect x="4.4" y="10" class="st0" width="2.3" height="2.3"/>
<rect x="4.4" y="6.8" class="st0" width="2.3" height="2.3"/>
<path class="st0" d="M12.8,6.3h-2.3c0,1.5,1.3,2.8,2.8,2.8l0,0V6.8C13,6.8,12.8,6.6,12.8,6.3z"/>
<path class="st0" d="M10,3.5V1.2C8.4,1.2,7.2,2.4,7.2,4c0,0,0,0,0,0h2.3C9.5,3.7,9.7,3.5,10,3.5C10,3.5,10,3.5,10,3.5z"/>
<path class="st0" d="M10,3.5V1.2c1.5,0,2.8,1.3,2.8,2.8c0,0,0,0,0,0h-2.3C10.5,3.7,10.3,3.5,10,3.5C10,3.5,10,3.5,10,3.5z"/>
<rect x="7.2" y="4" class="st0" width="2.3" height="2.3"/>
<rect x="10.4" y="4" class="st0" width="2.3" height="2.3"/>
<path class="st0" d="M13.3,12.4V10c-1.5,0-2.8,1.3-2.8,2.8l0,0h2.3C12.8,12.6,13,12.4,13.3,12.4z"/>
<rect x="13.3" y="6.8" class="st0" width="2.3" height="2.3"/>
<rect x="13.3" y="10" class="st0" width="2.3" height="2.3"/>
<rect x="15.6" y="10" class="st0" width="2.3" height="2.3"/>
<rect x="10.4" y="15.2" class="st0" width="2.3" height="2.3"/>
<rect x="10.4" y="12.8" class="st0" width="2.3" height="2.3"/>
<rect x="7.2" y="12.8" class="st0" width="2.3" height="2.3"/>
<path class="st0" d="M24.5,18v2.3c-1.5,0-2.8-1.3-2.8-2.8H24C24,17.8,24.2,18,24.5,18z"/>
<path class="st0" d="M24.5,23.6v-2.3c-1.5,0-2.8,1.3-2.8,2.8H24C24,23.8,24.2,23.6,24.5,23.6z"/>
<path class="st0" d="M27.3,20.8h2.3c0-1.5-1.3-2.8-2.8-2.8v2.3C27,20.3,27.2,20.5,27.3,20.8z"/>
<path class="st0" d="M27.3,20.8h2.3c0,1.5-1.3,2.8-2.8,2.8v-2.3C27,21.2,27.3,21,27.3,20.8z"/>
<rect x="24.4" y="18" class="st0" width="2.3" height="2.3"/>
<rect x="24.5" y="21.2" class="st0" width="2.3" height="2.3"/>
<path class="st0" d="M18.4,24h2.3c0-1.5-1.3-2.8-2.8-2.8v2.3C18.2,23.5,18.4,23.7,18.4,24z"/>
<path class="st0" d="M21.2,26.8v2.3c1.5,0,2.8-1.3,2.8-2.8h-2.3C21.6,26.6,21.4,26.8,21.2,26.8z"/>
<path class="st0" d="M21.2,26.8v2.3c-1.5,0-2.8-1.3-2.8-2.8h2.3C20.7,26.6,20.9,26.8,21.2,26.8z"/>
<path class="st0" d="M13.3,18v2.3c-1.5,0-2.8-1.3-2.8-2.8h2.3C12.8,17.8,13,18,13.3,18z"/>
<path class="st0" d="M17.9,12.4V10c1.5,0,2.8,1.3,2.8,2.8h-2.3C18.4,12.6,18.2,12.4,17.9,12.4z"/>
<rect x="21.6" y="24" class="st0" width="2.3" height="2.3"/>
<rect x="18.4" y="24" class="st0" width="2.3" height="2.3"/>
<path class="st0" d="M17.9,18v2.3c1.5,0,2.8-1.3,2.8-2.8h-2.3C18.4,17.8,18.2,18,17.9,18z"/>
<rect x="15.6" y="21.2" class="st0" width="2.3" height="2.3"/>
<rect x="15.6" y="18" class="st0" width="2.3" height="2.3"/>
<rect x="13.3" y="18" class="st0" width="2.3" height="2.3"/>
<rect x="18.4" y="12.8" class="st0" width="2.3" height="2.3"/>
<rect x="21.7" y="12.8" class="st0" width="2.3" height="2.3"/>
<rect x="18.4" y="15.2" class="st0" width="2.3" height="2.3"/>
<rect x="21.7" y="15.2" class="st0" width="2.3" height="2.3"/>
<path class="st0" d="M18.4,6.3h2.3c0,1.5-1.3,2.8-2.8,2.8V6.8C18.2,6.8,18.4,6.6,18.4,6.3z"/>
<path class="st0" d="M24,6.3h-2.4c0,1.5,1.3,2.8,2.8,2.8V6.8C24.2,6.8,24,6.6,24,6.3z"/>
<path class="st0" d="M21.2,3.5V1.2c-1.6,0-2.8,1.3-2.8,2.8c0,0,0,0,0,0h2.3C20.7,3.7,20.9,3.5,21.2,3.5C21.2,3.5,21.2,3.5,21.2,3.5z
	"/>
<path class="st0" d="M21.2,3.5V1.2c1.5,0,2.8,1.2,2.8,2.8c0,0,0,0,0,0.1h-2.4C21.7,3.7,21.5,3.5,21.2,3.5
	C21.2,3.5,21.2,3.5,21.2,3.5z"/>
<rect x="18.4" y="4" class="st0" width="2.3" height="2.3"/>
<rect x="21.7" y="4" class="st0" width="2.3" height="2.3"/>
<path class="st0" d="M24.5,12.4V10c-1.5,0-2.8,1.3-2.8,2.8H24C24,12.6,24.2,12.4,24.5,12.4z"/>
<path class="st0" d="M27.3,9.6h2.3c0-1.5-1.3-2.8-2.8-2.8v2.3C27,9.1,27.2,9.3,27.3,9.6z"/>
<path class="st0" d="M27.3,9.6h2.3c0,1.5-1.3,2.8-2.8,2.8V10C27,10,27.2,9.8,27.3,9.6z"/>
<rect x="24.5" y="6.8" class="st0" width="2.3" height="2.3"/>
<rect x="24.5" y="10" class="st0" width="2.3" height="2.3"/>
<rect x="15.6" y="6.8" class="st0" width="2.3" height="2.3"/>
<path class="st0" d="M12.8,24h-2.3c0-1.5,1.3-2.8,2.8-2.8v2.3C13,23.5,12.8,23.7,12.8,24z"/>
<path class="st0" d="M7.2,24h2.3c0-1.5-1.3-2.8-2.8-2.8v2.3C7,23.5,7.2,23.7,7.2,24z"/>
<path class="st0" d="M10,26.8v2.3c1.5,0,2.8-1.3,2.8-2.8h-2.4C10.5,26.6,10.3,26.8,10,26.8z"/>
<path class="st0" d="M10,26.8v2.3c-1.5,0-2.8-1.3-2.8-2.8h2.3C9.5,26.6,9.7,26.8,10,26.8C10,26.8,10,26.8,10,26.8z"/>
<rect x="10.4" y="24" class="st0" width="2.3" height="2.3"/>
<rect x="7.2" y="24" class="st0" width="2.3" height="2.3"/>
<path class="st0" d="M6.7,18v2.3c1.5,0,2.8-1.3,2.8-2.8H7.2C7.2,17.8,7,18,6.7,18z"/>
<path class="st0" d="M3.9,20.8H1.6c0,1.5,1.3,2.8,2.8,2.8v-2.3C4.1,21.2,3.9,21,3.9,20.8z"/>
<path class="st0" d="M3.9,20.8H1.6c0-1.5,1.3-2.8,2.8-2.8v2.3C4.1,20.3,3.9,20.5,3.9,20.8z"/>
<rect x="4.4" y="21.2" class="st0" width="2.3" height="2.3"/>
<rect x="4.4" y="18" class="st0" width="2.3" height="2.3"/>
<rect x="7.2" y="15.2" class="st0" width="2.3" height="2.3"/>
<rect x="13.3" y="21.2" class="st0" width="2.3" height="2.3"/>
</svg>
