<?xml version="1.0" encoding="utf-8"?>
<!-- Generator: Adobe Illustrator 24.2.0, SVG Export Plug-In . SVG Version: 6.00 Build 0)  -->
<svg version="1.1" id="图层_1" xmlns="http://www.w3.org/2000/svg" xmlns:xlink="http://www.w3.org/1999/xlink" x="0px" y="0px"
	 viewBox="0 0 30 30" style="enable-background:new 0 0 30 30;" xml:space="preserve">
<style type="text/css">
	.st0{fill:#FFFFFF;}
</style>
<polygon class="st0" points="19.7,29 19.7,19.7 29,19.7 "/>
<polygon class="st0" points="29,19.7 29,29 19.7,29 "/>
<polygon class="st0" points="19.7,10.3 19.7,19.7 10.3,19.7 "/>
<path class="st0" d="M19.7,10.3v9.3H29C29,14.5,24.8,10.3,19.7,10.3z"/>
<path class="st0" d="M19.7,29v-9.3h-9.3C10.3,24.8,14.5,29,19.7,29z"/>
<polygon class="st0" points="10.3,1 10.3,10.3 1,10.3 "/>
<polygon class="st0" points="1,10.3 1,1 10.3,1 "/>
<polygon class="st0" points="10.3,19.7 10.3,10.3 19.7,10.3 "/>
<path class="st0" d="M10.3,19.7v-9.3H1C1,15.5,5.2,19.7,10.3,19.7z"/>
<path class="st0" d="M10.3,1v9.3h9.3C19.7,5.2,15.5,1,10.3,1z"/>
</svg>
