<?xml version="1.0" encoding="utf-8"?>
<!-- Generator: Adobe Illustrator 24.2.0, SVG Export Plug-In . SVG Version: 6.00 Build 0)  -->
<svg version="1.1" id="图层_1" xmlns="http://www.w3.org/2000/svg" xmlns:xlink="http://www.w3.org/1999/xlink" x="0px" y="0px"
	 viewBox="0 0 30 30" style="enable-background:new 0 0 30 30;" xml:space="preserve">
<style type="text/css">
	.st0{fill:#FFFFFF;}
</style>
<polygon class="st0" points="22.5,19.1 22.5,25.7 16.8,29 16.8,22.4 "/>
<polygon class="st0" points="11.1,19.1 11.1,25.7 16.8,29 16.8,22.4 "/>
<polygon class="st0" points="28.2,15.8 28.2,22.4 22.5,25.7 22.5,19.1 "/>
<polygon class="st0" points="13.9,7.6 19.6,4.3 25.3,7.6 19.6,10.9 "/>
<polygon class="st0" points="19.6,17.5 25.3,14.2 25.3,7.6 19.6,10.9 "/>
<polygon class="st0" points="8.2,4.3 13.9,1 19.6,4.3 13.9,7.6 "/>
<polygon class="st0" points="8.2,20.8 2.5,17.5 2.5,10.9 8.2,14.2 "/>
<polygon class="st0" points="13.9,10.9 8.2,7.6 2.5,10.9 8.2,14.2 "/>
<polygon class="st0" points="8.2,27.4 2.5,24.1 2.5,17.5 8.2,20.8 "/>
</svg>
