<?xml version="1.0" encoding="utf-8"?>
<!-- Generator: Adobe Illustrator 24.2.0, SVG Export Plug-In . SVG Version: 6.00 Build 0)  -->
<svg version="1.1" id="图层_1" xmlns="http://www.w3.org/2000/svg" xmlns:xlink="http://www.w3.org/1999/xlink" x="0px" y="0px"
	 viewBox="0 0 30 30" style="enable-background:new 0 0 30 30;" xml:space="preserve">
<style type="text/css">
	.st0{fill:#FFFFFF;}
</style>
<polygon class="st0" points="29,15 23.1,15 20.1,20.1 26,20.1 "/>
<polygon class="st0" points="29,15 23.1,15 20.1,9.9 26,9.9 "/>
<polygon class="st0" points="15,29 15,23.1 9.9,20.1 9.9,26 "/>
<polygon class="st0" points="15,29 15,23.1 20.1,20.1 20.1,26 "/>
<polygon class="st0" points="15,1 15,6.9 9.9,9.9 9.9,4 "/>
<polygon class="st0" points="15,1 15,6.9 20.1,9.9 20.1,4 "/>
<polygon class="st0" points="1,15 6.9,15 9.9,20.1 4,20.1 "/>
<polygon class="st0" points="1,15 6.9,15 9.9,9.9 4,9.9 "/>
</svg>
