<?xml version="1.0" encoding="utf-8"?>
<!-- Generator: Adobe Illustrator 24.2.0, SVG Export Plug-In . SVG Version: 6.00 Build 0)  -->
<svg version="1.1" id="图层_1" xmlns="http://www.w3.org/2000/svg" xmlns:xlink="http://www.w3.org/1999/xlink" x="0px" y="0px"
	 viewBox="0 0 30 30" style="enable-background:new 0 0 30 30;" xml:space="preserve">
<style type="text/css">
	.st0{fill:#FFFFFF;}
</style>
<polygon class="st0" points="8,15 8,8 15,8 "/>
<path class="st0" d="M8,8h7V1C11.1,1,8,4.1,8,8z"/>
<path class="st0" d="M15,1v7h7C22,4.1,18.9,1,15,1z"/>
<polygon class="st0" points="15,8 22,8 22,15 "/>
<path class="st0" d="M22,8v7h7C29,11.1,25.9,8,22,8z"/>
<path class="st0" d="M29,15h-7v7C25.9,22,29,18.9,29,15z"/>
<polygon class="st0" points="22,15 22,22 15,22 "/>
<path class="st0" d="M22,22h-7v7C18.9,29,22,25.9,22,22z"/>
<path class="st0" d="M15,29v-7H8C8,25.9,11.1,29,15,29z"/>
<polygon class="st0" points="15,22 8,22 8,15 "/>
<path class="st0" d="M8,22v-7H1C1,18.9,4.1,22,8,22z"/>
<path class="st0" d="M1,15h7V8C4.1,8,1,11.1,1,15z"/>
</svg>
