<?xml version="1.0" encoding="utf-8"?>
<!-- Generator: Adobe Illustrator 24.2.0, SVG Export Plug-In . SVG Version: 6.00 Build 0)  -->
<svg version="1.1" id="图层_1" xmlns="http://www.w3.org/2000/svg" xmlns:xlink="http://www.w3.org/1999/xlink" x="0px" y="0px"
	 viewBox="0 0 30 30" style="enable-background:new 0 0 30 30;" xml:space="preserve">
<style type="text/css">
	.st0{fill:#FFFFFF;}
</style>
<polygon class="st0" points="0,15 0,23.7 7.5,28 7.5,19.3 "/>
<polygon class="st0" points="15,15 15,23.7 7.5,28 7.5,19.3 "/>
<polygon class="st0" points="15,15 15,23.7 22.5,28 22.5,19.3 "/>
<polygon class="st0" points="30,15 30,23.7 22.5,28 22.5,19.3 "/>
<polygon class="st0" points="15,15 15,6.3 7.5,2 7.5,10.7 "/>
<polygon class="st0" points="30,15 30,6.3 22.5,2 22.5,10.7 "/>
<polygon class="st0" points="15,15 15,6.3 22.5,2 22.5,10.7 "/>
<polygon class="st0" points="0,15 0,6.3 7.5,2 7.5,10.7 "/>
</svg>
