<?xml version="1.0" encoding="utf-8"?>
<!-- Generator: Adobe Illustrator 24.2.0, SVG Export Plug-In . SVG Version: 6.00 Build 0)  -->
<svg version="1.1" id="图层_1" xmlns="http://www.w3.org/2000/svg" xmlns:xlink="http://www.w3.org/1999/xlink" x="0px" y="0px"
	 viewBox="0 0 35 35" style="enable-background:new 0 0 35 35;" xml:space="preserve">
<style type="text/css">
	.st0{fill:#EEF9F5;}
	.st1{fill:#56C29B;}
</style>
<path class="st0" d="M5,0h25c2.8,0,5,2.3,5,5v25c0,2.8-2.3,5-5,5H5c-2.8,0-5-2.3-5-5V5C0,2.3,2.3,0,5,0z"/>
<g>
	<path class="st1" d="M24.2,20.6h-1.9h-1.9h-1.9h-2h-1.9h-1.9h-1.9c-1.3,0-2.3,1-2.3,2.3s1,2.3,2.3,2.3h1.9h1.9h1.9h2h1.9h1.9h1.9
		c1.3,0,2.3-1,2.3-2.3S25.5,20.6,24.2,20.6z M24.2,23.2h-1.9h-1.9h-1.9h-2h-1.9h-1.9h-1.9c-0.2,0-0.4-0.2-0.4-0.4
		c0-0.2,0.2-0.4,0.4-0.4h1.9h1.9h1.9h2h1.9h1.9h1.9c0.2,0,0.4,0.2,0.4,0.4C24.6,23,24.4,23.2,24.2,23.2z"/>
	<path class="st1" d="M24.2,15.2h-1.9h-1.9h-1.9h-2h-1.9h-1.9h-1.9c-1.3,0-2.3,1-2.3,2.3s1,2.3,2.3,2.3h1.9h1.9h1.9h2h1.9h1.9h1.9
		c1.3,0,2.3-1,2.3-2.3S25.5,15.2,24.2,15.2z M24.2,17.9h-1.9h-1.9h-1.9h-2h-1.9h-1.9h-1.9c-0.2,0-0.4-0.2-0.4-0.4s0.2-0.4,0.4-0.4
		h1.9h1.9h1.9h2h1.9h1.9h1.9c0.2,0,0.4,0.2,0.4,0.4C24.6,17.7,24.4,17.9,24.2,17.9z"/>
	<path class="st1" d="M10.8,14.4h1.9h1.9h1.9h2h1.9h1.9h1.9c1.3,0,2.3-1,2.3-2.3s-1-2.3-2.3-2.3h-1.9h-1.9h-1.9h-2h-1.9h-1.9h-1.9
		c-1.3,0-2.3,1.1-2.3,2.3S9.5,14.4,10.8,14.4z M10.8,11.8h1.9h1.9h1.9h2h1.9h1.9h1.9c0.2,0,0.4,0.2,0.4,0.4s-0.2,0.4-0.4,0.4h-1.9
		h-1.9h-1.9h-2h-1.9h-1.9h-1.9c-0.2,0-0.4-0.2-0.4-0.4C10.4,11.9,10.6,11.8,10.8,11.8z"/>
</g>
</svg>
