<?xml version="1.0" encoding="utf-8"?>
<!-- Generator: Adobe Illustrator 24.2.0, SVG Export Plug-In . SVG Version: 6.00 Build 0)  -->
<svg version="1.1" id="图层_1" xmlns="http://www.w3.org/2000/svg" xmlns:xlink="http://www.w3.org/1999/xlink" x="0px" y="0px"
	 viewBox="0 0 35 35" style="enable-background:new 0 0 35 35;" xml:space="preserve">
<style type="text/css">
	.st0{fill:#F1F4FB;}
	.st1{fill:#597CC1;}
</style>
<path class="st0" d="M5,0h25c2.8,0,5,2.3,5,5v25c0,2.8-2.3,5-5,5H5c-2.8,0-5-2.3-5-5V5C0,2.3,2.3,0,5,0z"/>
<g>
	<polygon class="st1" points="9,17.5 9,21.8 9,26 13.3,26 13.3,21.8 13.3,17.5 13.3,13.3 9,13.3 	"/>
	<path class="st1" d="M17.5,13.3V9h-4.3v4.3v4.3C15.6,17.5,17.5,15.6,17.5,13.3L17.5,13.3z"/>
	<polygon class="st1" points="21.8,9 21.8,13.3 21.8,17.5 21.8,21.8 26,21.8 26,17.5 26,13.3 26,9 	"/>
	<path class="st1" d="M17.5,21.8L17.5,21.8v4.3h4.3v-4.3v-4.3C19.4,17.5,17.5,19.4,17.5,21.8z"/>
</g>
</svg>
