<?xml version="1.0" encoding="utf-8"?>
<!-- Generator: Adobe Illustrator 24.2.0, SVG Export Plug-In . SVG Version: 6.00 Build 0)  -->
<svg version="1.1" id="图层_1" xmlns="http://www.w3.org/2000/svg" xmlns:xlink="http://www.w3.org/1999/xlink" x="0px" y="0px"
	 viewBox="0 0 35 35" style="enable-background:new 0 0 35 35;" xml:space="preserve">
<style type="text/css">
	.st0{fill:#F4F9FD;}
	.st1{fill:#4497D4;}
</style>
<path class="st0" d="M5,0h25c2.8,0,5,2.3,5,5v25c0,2.8-2.3,5-5,5H5c-2.8,0-5-2.3-5-5V5C0,2.3,2.3,0,5,0z"/>
<g>
	<path class="st1" d="M19.7,21.9c-1.2,1.2-3.2,1.2-4.4,0c-2.5-2.5-6.4-2.5-8.9,0l2.2,2.2c1.2-1.2,3.2-1.2,4.4,0
		c2.5,2.5,6.4,2.5,8.9,0c1.2-1.2,3.2-1.2,4.4,0l2.2-2.2C26.1,19.5,22.2,19.5,19.7,21.9z"/>
	<path class="st1" d="M21.9,19.7c2.5-2.5,2.5-6.4,0-8.9s-6.4-2.5-8.9,0s-2.5,6.4,0,8.9S19.5,22.2,21.9,19.7z M19.7,13.1
		c1.2,1.2,1.2,3.2,0,4.4c-1.2,1.2-3.2,1.2-4.4,0s-1.2-3.2,0-4.4C16.5,11.8,18.5,11.8,19.7,13.1z"/>
</g>
</svg>
