<svg id="图层_1" data-name="图层 1" xmlns="http://www.w3.org/2000/svg" viewBox="0 0 27 27"><defs><style>.cls-1{fill:#f4f9fd;}.cls-2{fill:#4497d4;}</style></defs><rect class="cls-1" width="27" height="27" rx="5.02"/><path class="cls-2" d="M14.75,13.5H16a1.25,1.25,0,0,0,1.25-1.25V11A1.25,1.25,0,0,1,18.5,9.75h1.25A1.25,1.25,0,0,0,21,8.5V7.25A1.25,1.25,0,0,0,19.75,6H18.5a1.25,1.25,0,0,0-1.25,1.25V8.5A1.25,1.25,0,0,1,16,9.75H14.75A1.25,1.25,0,0,1,13.5,8.5V7.25A1.25,1.25,0,0,0,12.25,6H11A1.25,1.25,0,0,0,9.75,7.25V8.5A1.25,1.25,0,0,1,8.5,9.75H7.25A1.25,1.25,0,0,0,6,11v1.25A1.25,1.25,0,0,0,7.25,13.5H8.5a1.25,1.25,0,0,0,1.25-1.25V11A1.25,1.25,0,0,1,11,9.75h1.25A1.25,1.25,0,0,1,13.5,11v1.25a1.25,1.25,0,0,1-1.25,1.25H11a1.25,1.25,0,0,0-1.25,1.25V16A1.25,1.25,0,0,1,8.5,17.25H7.25A1.25,1.25,0,0,0,6,18.5v1.25A1.25,1.25,0,0,0,7.25,21H8.5a1.25,1.25,0,0,0,1.25-1.25V18.5A1.25,1.25,0,0,1,11,17.25h1.25A1.25,1.25,0,0,1,13.5,18.5v1.25A1.25,1.25,0,0,0,14.75,21H16a1.25,1.25,0,0,0,1.25-1.25V18.5a1.25,1.25,0,0,1,1.25-1.25h1.25A1.25,1.25,0,0,0,21,16V14.75a1.25,1.25,0,0,0-1.25-1.25H18.5a1.25,1.25,0,0,0-1.25,1.25V16A1.25,1.25,0,0,1,16,17.25H14.75A1.25,1.25,0,0,1,13.5,16V14.75A1.25,1.25,0,0,1,14.75,13.5Z"/></svg>