<svg id="图层_1" data-name="图层 1" xmlns="http://www.w3.org/2000/svg" viewBox="0 0 27 27"><defs><style>.cls-1{fill:#f4f9fd;}.cls-2{fill:#4497d4;}</style></defs><rect class="cls-1" width="27" height="27" rx="5.02"/><path class="cls-2" d="M9,15.14V13.77a1.65,1.65,0,0,1,1.64,1.64H9.27A.27.27,0,0,0,9,15.14Z"/><path class="cls-2" d="M9,11.86v1.37a1.65,1.65,0,0,0,1.64-1.64H9.27A.27.27,0,0,1,9,11.86Z"/><path class="cls-2" d="M7.36,13.5H6a1.64,1.64,0,0,0,1.64,1.64V13.77A.28.28,0,0,1,7.36,13.5Z"/><path class="cls-2" d="M7.36,13.5H6a1.64,1.64,0,0,1,1.64-1.64v1.37A.28.28,0,0,0,7.36,13.5Z"/><rect class="cls-2" x="7.64" y="13.77" width="1.36" height="1.36" transform="translate(22.77 6.14) rotate(90)"/><rect class="cls-2" x="7.64" y="11.86" width="1.36" height="1.36" transform="translate(20.86 4.23) rotate(90)"/><path class="cls-2" d="M12.55,11.59H11.18a1.64,1.64,0,0,0,1.64,1.64V11.86A.27.27,0,0,1,12.55,11.59Z"/><path class="cls-2" d="M10.91,10V8.59a1.64,1.64,0,0,0-1.64,1.64h1.37A.28.28,0,0,1,10.91,10Z"/><path class="cls-2" d="M10.91,10V8.59a1.64,1.64,0,0,1,1.64,1.64H11.18A.28.28,0,0,0,10.91,10Z"/><rect class="cls-2" x="9.27" y="10.23" width="1.36" height="1.36" transform="translate(19.91 21.82) rotate(180)"/><rect class="cls-2" x="11.18" y="10.23" width="1.36" height="1.36" transform="translate(23.73 21.82) rotate(180)"/><rect class="cls-2" x="12.82" y="11.86" width="1.36" height="1.36" transform="translate(27 25.09) rotate(180)"/><rect class="cls-2" x="12.82" y="13.77" width="1.36" height="1.36" transform="translate(27 28.91) rotate(180)"/><path class="cls-2" d="M12.82,15.14V13.77a1.64,1.64,0,0,0-1.64,1.64h1.37A.27.27,0,0,1,12.82,15.14Z"/><path class="cls-2" d="M14.45,15.41h1.37a1.64,1.64,0,0,0-1.64-1.64v1.37A.27.27,0,0,1,14.45,15.41Z"/><path class="cls-2" d="M14.45,11.59h1.37a1.64,1.64,0,0,1-1.64,1.64V11.86A.27.27,0,0,0,14.45,11.59Z"/><path class="cls-2" d="M10.91,17.05v1.36a1.64,1.64,0,0,0,1.64-1.64H11.18A.28.28,0,0,1,10.91,17.05Z"/><path class="cls-2" d="M10.91,17.05v1.36a1.64,1.64,0,0,1-1.64-1.64h1.37A.28.28,0,0,0,10.91,17.05Z"/><rect class="cls-2" x="11.18" y="15.41" width="1.36" height="1.36"/><rect class="cls-2" x="9.27" y="15.41" width="1.36" height="1.36"/><path class="cls-2" d="M18,11.86v1.37a1.65,1.65,0,0,1-1.64-1.64h1.37A.27.27,0,0,0,18,11.86Z"/><path class="cls-2" d="M18,15.14V13.77a1.65,1.65,0,0,0-1.64,1.64h1.37A.27.27,0,0,1,18,15.14Z"/><path class="cls-2" d="M19.64,13.5H21a1.64,1.64,0,0,0-1.64-1.64v1.37A.28.28,0,0,1,19.64,13.5Z"/><path class="cls-2" d="M19.64,13.5H21a1.64,1.64,0,0,1-1.64,1.64V13.77A.28.28,0,0,0,19.64,13.5Z"/><rect class="cls-2" x="18" y="11.86" width="1.36" height="1.36" transform="translate(6.14 31.23) rotate(-90)"/><rect class="cls-2" x="18" y="13.77" width="1.36" height="1.36" transform="translate(4.23 33.14) rotate(-90)"/><path class="cls-2" d="M16.09,17.05v1.36a1.64,1.64,0,0,0,1.64-1.64H16.36A.28.28,0,0,1,16.09,17.05Z"/><path class="cls-2" d="M16.09,17.05v1.36a1.64,1.64,0,0,1-1.64-1.64h1.37A.28.28,0,0,0,16.09,17.05Z"/><rect class="cls-2" x="16.36" y="15.41" width="1.36" height="1.36"/><rect class="cls-2" x="14.45" y="15.41" width="1.36" height="1.36"/><path class="cls-2" d="M16.09,10V8.59a1.64,1.64,0,0,0-1.64,1.64h1.37A.28.28,0,0,1,16.09,10Z"/><path class="cls-2" d="M16.09,10V8.59a1.64,1.64,0,0,1,1.64,1.64H16.36A.28.28,0,0,0,16.09,10Z"/><rect class="cls-2" x="14.45" y="10.23" width="1.36" height="1.36" transform="translate(30.27 21.82) rotate(180)"/><rect class="cls-2" x="16.36" y="10.23" width="1.36" height="1.36" transform="translate(34.09 21.82) rotate(180)"/></svg>