<svg id="图层_1" data-name="图层 1" xmlns="http://www.w3.org/2000/svg" viewBox="0 0 27 27"><defs><style>.cls-1{fill:#f4f9fd;}.cls-2{fill:#4497d4;}</style></defs><rect class="cls-1" width="27" height="27" rx="5.02"/><path class="cls-2" d="M12,13.5V10.59A2.91,2.91,0,0,1,15,13.5Z"/><path class="cls-2" d="M15,13.5H12A2.91,2.91,0,0,0,15,16.41Z"/><path class="cls-2" d="M9.13,16.41v2.91a2.91,2.91,0,0,1-2.91-2.91Z"/><path class="cls-2" d="M12,16.41H15A2.91,2.91,0,0,1,12,19.32Z"/><path class="cls-2" d="M9.13,13.5H6.22a2.91,2.91,0,0,1,2.91-2.91Z"/><rect class="cls-2" x="6.22" y="13.5" width="2.91" height="2.91" transform="translate(-7.28 22.63) rotate(-90)"/><rect class="cls-2" x="9.13" y="10.59" width="2.91" height="2.91" transform="translate(-1.46 22.63) rotate(-90)"/><rect class="cls-2" x="9.13" y="16.41" width="2.91" height="2.91" transform="translate(-7.28 28.46) rotate(-90)"/><path class="cls-2" d="M17.87,10.59V7.68a2.91,2.91,0,0,1,2.91,2.91Z"/><path class="cls-2" d="M15,10.59H12A2.91,2.91,0,0,1,15,7.68Z"/><path class="cls-2" d="M17.87,13.5h2.91a2.91,2.91,0,0,1-2.91,2.91Z"/><rect class="cls-2" x="17.87" y="10.59" width="2.91" height="2.91" transform="translate(31.37 -7.28) rotate(90)"/><rect class="cls-2" x="14.96" y="13.5" width="2.91" height="2.91" transform="translate(31.37 -1.46) rotate(90)"/><rect class="cls-2" x="14.96" y="7.68" width="2.91" height="2.91" transform="translate(25.54 -7.28) rotate(90)"/></svg>