<svg id="图层_1" data-name="图层 1" xmlns="http://www.w3.org/2000/svg" viewBox="0 0 27 27"><defs><style>.cls-1{fill:#f4f9fd;}.cls-2{fill:#7a7de0;}</style></defs><rect class="cls-1" width="27" height="27" rx="5.02"/><polygon class="cls-2" points="17.67 15.9 17.67 19.75 14.33 21.68 14.33 17.83 17.67 15.9"/><polygon class="cls-2" points="11 15.9 11 19.75 14.33 21.68 14.33 17.83 11 15.9"/><polygon class="cls-2" points="21 13.98 21 17.83 17.67 19.75 17.67 15.9 21 13.98"/><polygon class="cls-2" points="12.67 9.17 16 7.25 19.33 9.17 16 11.09 12.67 9.17"/><polygon class="cls-2" points="16 14.94 19.33 13.02 19.33 9.17 16 11.09 16 14.94"/><polygon class="cls-2" points="9.33 7.25 12.67 5.32 16 7.25 12.67 9.17 9.33 7.25"/><polygon class="cls-2" points="9.33 16.87 6 14.94 6 11.09 9.33 13.02 9.33 16.87"/><polygon class="cls-2" points="12.67 11.09 9.33 9.17 6 11.09 9.33 13.02 12.67 11.09"/><polygon class="cls-2" points="9.33 20.72 6 18.79 6 14.94 9.33 16.87 9.33 20.72"/></svg>