<svg id="图层_1" data-name="图层 1" xmlns="http://www.w3.org/2000/svg" viewBox="0 0 27 27"><defs><style>.cls-1{fill:#f4f9fd;}.cls-2{fill:#56c29b;}</style></defs><rect class="cls-1" width="27" height="27" rx="5.02"/><polygon class="cls-2" points="18 9.17 18 12.63 15 14.37 15 10.9 18 9.17"/><polygon class="cls-2" points="6 9.17 6 12.63 9 14.37 9 10.9 6 9.17"/><polygon class="cls-2" points="12 9.17 9 10.9 6 9.17 9 7.44 12 9.17"/><polygon class="cls-2" points="15 7.44 12 9.17 9 7.44 12 5.71 15 7.44"/><polygon class="cls-2" points="18 9.17 15 10.9 12 9.17 15 7.44 18 9.17"/><polygon class="cls-2" points="9 17.83 9 14.37 12 12.63 12 16.1 9 17.83"/><polygon class="cls-2" points="21 17.83 21 14.37 18 12.63 18 16.1 21 17.83"/><polygon class="cls-2" points="15 17.83 18 16.1 21 17.83 18 19.56 15 17.83"/><polygon class="cls-2" points="12 19.56 15 17.83 18 19.56 15 21.29 12 19.56"/><polygon class="cls-2" points="9 17.83 12 16.1 15 17.83 12 19.56 9 17.83"/></svg>