<svg id="图层_1" data-name="图层 1" xmlns="http://www.w3.org/2000/svg" viewBox="0 0 27 27"><defs><style>.cls-1{fill:#f4f9fd;}.cls-2{fill:#7a7de0;}</style></defs><rect class="cls-1" width="27" height="27" rx="5.02"/><polygon class="cls-2" points="15 14.37 15 17.83 12 19.56 12 16.1 15 14.37"/><polygon class="cls-2" points="12 16.1 12 19.56 9 21.29 9 17.83 12 16.1"/><polygon class="cls-2" points="9 21.29 6 19.56 6 16.1 9 17.83 9 21.29"/><polygon class="cls-2" points="6 12.63 9 10.9 12 12.63 9 14.37 6 12.63"/><polygon class="cls-2" points="9 17.83 6 16.1 6 12.63 9 14.37 9 17.83"/><polygon class="cls-2" points="12 12.63 12 9.17 15 7.44 15 10.9 12 12.63"/><polygon class="cls-2" points="15 10.9 15 7.44 18 5.71 18 9.17 15 10.9"/><polygon class="cls-2" points="18 5.71 21 7.44 21 10.9 18 9.17 18 5.71"/><polygon class="cls-2" points="21 14.37 18 16.1 15 14.37 18 12.63 21 14.37"/><polygon class="cls-2" points="18 9.17 21 10.9 21 14.37 18 12.63 18 9.17"/></svg>