<svg id="图层_1" data-name="图层 1" xmlns="http://www.w3.org/2000/svg" viewBox="0 0 27 27"><defs><style>.cls-1{fill:#f4f9fd;}.cls-2{fill:#4497d4;}</style></defs><rect class="cls-1" width="27" height="27" rx="5.02"/><path class="cls-2" d="M9.75,11.63v3.75H6A3.74,3.74,0,0,1,9.75,11.63Z"/><path class="cls-2" d="M13.5,7.88v3.75H9.75A3.74,3.74,0,0,1,13.5,7.88Z"/><path class="cls-2" d="M17.25,11.62H13.5V7.88A3.74,3.74,0,0,1,17.25,11.62Z"/><path class="cls-2" d="M21,15.37H17.25V11.62A3.75,3.75,0,0,1,21,15.37Z"/><rect class="cls-2" x="9.75" y="15.37" width="3.75" height="3.75" transform="translate(-5.62 28.87) rotate(-90)"/><path class="cls-2" d="M6,15.38H9.75v3.74A3.74,3.74,0,0,1,6,15.38Z"/><path class="cls-2" d="M17.25,19.12V15.37H21A3.74,3.74,0,0,1,17.25,19.12Z"/></svg>