<svg id="图层_1" data-name="图层 1" xmlns="http://www.w3.org/2000/svg" viewBox="0 0 27 27"><defs><style>.cls-1{fill:#f4f9fd;}.cls-2{fill:#7a7de0;}</style></defs><rect class="cls-1" width="27" height="27" rx="5.02"/><polygon class="cls-2" points="6.5 16.53 10 18.55 13.5 16.53 10 14.51 6.5 16.53"/><polygon class="cls-2" points="10 18.55 13.5 20.57 17 18.55 13.5 16.53 10 18.55"/><polygon class="cls-2" points="13.5 16.53 17 18.55 20.5 16.53 17 14.51 13.5 16.53"/><polygon class="cls-2" points="6.5 16.53 10 14.51 10 10.47 6.5 12.49 6.5 16.53"/><polygon class="cls-2" points="10 14.51 13.5 12.49 13.5 8.45 10 10.47 10 14.51"/><polygon class="cls-2" points="20.5 16.53 17 14.51 17 10.47 20.5 12.49 20.5 16.53"/><polygon class="cls-2" points="20.5 12.49 17 10.47 17 6.43 20.5 8.45 20.5 12.49"/></svg>