<svg id="图层_1" data-name="图层 1" xmlns="http://www.w3.org/2000/svg" viewBox="0 0 35 35"><defs><style>.cls-1{fill:#f1f2fc;}.cls-2{fill:#7a7de0;}</style></defs><rect class="cls-1" width="35" height="35" rx="5.04"/><polygon class="cls-2" points="20.67 8.36 20.67 12.02 17.5 13.84 17.5 10.19 20.67 8.36"/><polygon class="cls-2" points="14.33 15.67 11.17 13.84 11.17 10.19 14.33 12.02 14.33 15.67"/><polygon class="cls-2" points="8 19.33 11.17 17.5 14.33 19.33 11.17 21.16 8 19.33"/><polygon class="cls-2" points="17.5 21.16 17.5 24.81 14.33 26.64 14.33 22.98 17.5 21.16"/><polygon class="cls-2" points="23.83 24.81 20.67 22.98 20.67 19.33 23.83 21.16 23.83 24.81"/><polygon class="cls-2" points="20.67 15.67 23.83 13.84 27 15.67 23.83 17.5 20.67 15.67"/></svg>