<svg id="图层_1" data-name="图层 1" xmlns="http://www.w3.org/2000/svg" viewBox="0 0 35 35"><defs><style>.cls-1{fill:#eef9f5;}.cls-2{fill:#56c29b;}</style></defs><rect class="cls-1" width="35" height="35" rx="5.04"/><path class="cls-2" d="M25.73,15.6H24.47a1.27,1.27,0,0,1-1.27-1.27V13.07a1.27,1.27,0,0,0-1.27-1.27H20.67a1.27,1.27,0,0,0-1.27,1.27v1.26a1.27,1.27,0,0,1-1.27,1.27H16.87a1.27,1.27,0,0,0-1.27,1.27v1.26a1.27,1.27,0,0,0,1.27,1.27h1.26a1.27,1.27,0,0,0,1.27-1.27V16.87a1.27,1.27,0,0,1,1.27-1.27h1.26a1.27,1.27,0,0,1,1.27,1.27v1.26a1.27,1.27,0,0,1-1.27,1.27H20.67a1.27,1.27,0,0,0-1.27,1.27v1.26a1.27,1.27,0,0,1-1.27,1.27H16.87a1.27,1.27,0,0,1-1.27-1.27V20.67a1.27,1.27,0,0,0-1.27-1.27H13.07a1.27,1.27,0,0,1-1.27-1.27V16.87a1.27,1.27,0,0,1,1.27-1.27h1.26a1.27,1.27,0,0,0,1.27-1.27V13.07a1.27,1.27,0,0,1,1.27-1.27h1.26a1.27,1.27,0,0,0,1.27-1.27V9.27A1.27,1.27,0,0,0,18.13,8H16.87A1.27,1.27,0,0,0,15.6,9.27v1.26a1.27,1.27,0,0,1-1.27,1.27H13.07a1.27,1.27,0,0,0-1.27,1.27v1.26a1.27,1.27,0,0,1-1.27,1.27H9.27A1.27,1.27,0,0,0,8,16.87v1.26A1.27,1.27,0,0,0,9.27,19.4h1.26a1.27,1.27,0,0,1,1.27,1.27v1.26a1.27,1.27,0,0,0,1.27,1.27h1.26a1.27,1.27,0,0,1,1.27,1.27v1.26A1.27,1.27,0,0,0,16.87,27h1.26a1.27,1.27,0,0,0,1.27-1.27V24.47a1.27,1.27,0,0,1,1.27-1.27h1.26a1.27,1.27,0,0,0,1.27-1.27V20.67a1.27,1.27,0,0,1,1.27-1.27h1.26A1.27,1.27,0,0,0,27,18.13V16.87A1.27,1.27,0,0,0,25.73,15.6Zm-7,.15-.17-.07Zm-3.2-3.06a.92.92,0,0,0-.09-.23A.92.92,0,0,1,15.54,12.69Zm-.6-.74-.19-.08Zm.12.08L15,12Zm-3.32,4.46a.92.92,0,0,0-.09-.23A.92.92,0,0,1,11.74,16.49Zm-.6-.74L11,15.67Zm.12.08-.09-.05Zm12.79-.16-.19.08Zm-.22.11-.09.05Zm-.48.48a.92.92,0,0,0-.09.23A.92.92,0,0,1,23.35,16.26Z"/></svg>