<?xml version="1.0" encoding="utf-8"?>
<!-- Generator: Adobe Illustrator 25.0.1, SVG Export Plug-In . SVG Version: 6.00 Build 0)  -->
<svg version="1.1" id="图层_1" xmlns="http://www.w3.org/2000/svg" xmlns:xlink="http://www.w3.org/1999/xlink" x="0px" y="0px"
	 viewBox="0 0 93 118.9" style="enable-background:new 0 0 93 118.9;" xml:space="preserve">
<style type="text/css">
	.st0{fill:#FFFFFF;}
</style>
<g>
	<path class="st0" d="M43.8,95.4V18.5c0-1.4,1.1-2.6,2.6-2.6S49,17,49,18.5v76.9c0,1.4-1.1,2.6-2.6,2.6S43.8,96.8,43.8,95.4
		L43.8,95.4z"/>
	<path class="st0" d="M43.9,95.3c0-0.7,0.3-1.3,0.8-1.8l20.2-20c1-1,2.6-1,3.6,0c1,1,1,2.6,0,3.6l-20.2,20c-1,1-2.6,1-3.6,0
		C44.1,96.6,43.9,96,43.9,95.3z"/>
	<path class="st0" d="M23.8,75.2c0-0.7,0.3-1.3,0.8-1.8c1-1,2.6-1,3.6,0l20,20.2c1,1,1,2.6,0,3.6c-1,1-2.6,1-3.6,0L24.6,77
		C24.1,76.5,23.8,75.8,23.8,75.2z"/>
</g>
</svg>
