<?xml version="1.0" encoding="utf-8"?>
<!-- Generator: Adobe Illustrator 25.0.1, SVG Export Plug-In . SVG Version: 6.00 Build 0)  -->
<svg version="1.1" id="Layer_1" xmlns="http://www.w3.org/2000/svg" xmlns:xlink="http://www.w3.org/1999/xlink" x="0px" y="0px"
	 viewBox="0 0 92.8 94.7" style="enable-background:new 0 0 92.8 94.7;" xml:space="preserve">
<style type="text/css">
	.st0{fill:#3DBEF9;}
</style>
<g>
	<path class="st0" d="M73.1,24.3L59.7,32l-13.3,7.7l-13.3,7.7l-13.3,7.7L6.4,47.4v15.4l13.3,7.7l13.3-7.7l13.3-7.7l13.3-7.7
		l13.3-7.7l13.3,7.7V32L73.1,24.3z"/>
	<path class="st0" d="M33.1,32l13.3-7.7L59.7,32V16.6L46.4,8.9l-13.3,7.7l-13.3,7.7L6.4,32v15.4l13.3-7.7L33.1,32z"/>
	<path class="st0" d="M59.7,62.8l-13.3,7.7l-13.3-7.7v15.4l13.3,7.7l13.3-7.7l13.3-7.7l13.3-7.7V47.4l-13.3,7.7L59.7,62.8z"/>
</g>
</svg>
